<svg width="23" height="21" viewBox="0 0 23 21" fill="none" xmlns="http://www.w3.org/2000/svg">
<path fill-rule="evenodd" clip-rule="evenodd" d="M1.79289 0.792893C2.15338 0.432409 2.72061 0.40468 3.1129 0.709705L3.20711 0.792893L17.4832 15.069C17.5385 15.1134 17.5897 15.1643 17.6356 15.2214L21.2071 18.7929C21.5976 19.1834 21.5976 19.8166 21.2071 20.2071C20.8466 20.5676 20.2794 20.5953 19.8871 20.2903L19.7929 20.2071L16.706 17.1203C15.1021 18.0382 13.3623 18.5 11.5 18.5C7.1044 18.5 3.46348 15.9514 0.631768 10.9962C0.456057 10.6887 0.456079 10.3112 0.631824 10.0037C1.82272 7.92032 3.15271 6.26402 4.62709 5.0413L1.79289 2.20711C1.40237 1.81658 1.40237 1.18342 1.79289 0.792893ZM6.04861 6.46282C4.90937 7.37487 3.84586 8.61002 2.8617 10.1732L2.661 10.5L2.77859 10.6941C5.13002 14.4935 7.92551 16.3901 11.209 16.4954L11.5 16.5C12.826 16.5 14.0644 16.2155 15.2281 15.6423L12.7945 13.2087C11.6784 13.7434 10.3001 13.548 9.37564 12.6229C8.45169 11.6982 8.25698 10.3209 8.79127 9.20548L6.04861 6.46282ZM10.7356 11.1498L10.8502 11.2644C10.8297 11.2469 10.8097 11.2285 10.7904 11.2091C10.7712 11.1899 10.7529 11.1701 10.7356 11.1498ZM11.5 2.49994C15.8956 2.49994 19.5365 5.04859 22.3682 10.0038C22.5439 10.3113 22.5439 10.6888 22.3682 10.9963C21.5533 12.4217 20.6753 13.6455 19.7314 14.6668C19.3565 15.0723 18.7238 15.0972 18.3182 14.7224C17.9127 14.3475 17.8878 13.7148 18.2626 13.3092C18.913 12.6056 19.5355 11.783 20.1296 10.8407L20.339 10.5L20.2214 10.3059C17.87 6.50649 15.0743 4.60986 11.7878 4.50458L11.4965 4.49993C10.6988 4.49716 9.90484 4.60708 9.13803 4.82643C8.60705 4.97833 8.05346 4.67102 7.90157 4.14003C7.74967 3.60905 8.05698 3.05546 8.58797 2.90357C9.5359 2.6324 10.5174 2.49652 11.5 2.49994Z" fill="#9E9E9E"/>
</svg>
