<svg width="21" height="17" viewBox="0 0 21 17" fill="none" xmlns="http://www.w3.org/2000/svg">
<path fill-rule="evenodd" clip-rule="evenodd" d="M17.5001 0.5H3.50011C1.84965 0.5 0.510476 1.8328 0.500166 3.48083C0.499967 3.49179 0.499947 3.50273 0.500106 3.51367V13.5C0.500106 15.1569 1.84325 16.5 3.50011 16.5H17.5001C19.157 16.5 20.5001 15.1569 20.5001 13.5V3.51366C20.5003 3.50273 20.5002 3.49179 20.5 3.48085C20.4897 1.83281 19.1506 0.5 17.5001 0.5ZM18.388 3.03948C18.2214 2.71894 17.8863 2.5 17.5001 2.5H3.50011C3.11389 2.5 2.77881 2.71894 2.61222 3.03948L10.5001 8.297L18.388 3.03948ZM2.50011 5.36852V13.5C2.50011 14.0523 2.94782 14.5 3.50011 14.5H17.5001C18.0524 14.5 18.5001 14.0523 18.5001 13.5V5.36852L11.0548 10.3321C10.7562 10.5311 10.3773 10.5532 10.0609 10.3984L9.94541 10.3321L2.50011 5.36852Z" fill="#9E9E9E"/>
</svg>
