<svg width="40" height="41" viewBox="0 0 40 41" fill="none" xmlns="http://www.w3.org/2000/svg">
<path fill-rule="evenodd" clip-rule="evenodd" d="M19.7682 0.513329L19.9962 0.499985L20.2322 0.513329L20.3496 0.530461L20.4726 0.556411L20.6949 0.62394C20.8452 0.679568 20.9905 0.754025 21.1272 0.847528L21.3362 1.012L21.8455 1.448C25.8797 4.79934 30.9799 6.59941 36.224 6.52276L36.9088 6.50209C37.8291 6.45998 38.6592 7.05203 38.919 7.93594C40.9047 14.6906 40.0661 21.9617 36.5951 28.0871C33.124 34.2124 27.3173 38.6683 20.5024 40.4359C20.173 40.5214 19.8274 40.5214 19.4981 40.4359C12.6831 38.6683 6.87639 34.2124 3.40536 28.0871C-0.065672 21.9617 -0.904226 14.6906 1.0814 7.93594C1.34124 7.05203 2.17129 6.45998 3.09164 6.50209C8.57497 6.75301 13.9453 4.94505 18.1549 1.448L18.6802 0.997191L18.8732 0.847528C19.0099 0.754025 19.1552 0.679568 19.3056 0.62394L19.5302 0.556002C19.6117 0.536167 19.6897 0.522421 19.7682 0.513329ZM20.0002 5.09L19.6473 5.36261C15.4234 8.51489 10.3386 10.3095 5.07182 10.5069L4.54421 10.518L4.41713 11.1381C3.4856 16.0102 4.22651 21.0715 6.54371 25.4885L6.88545 26.115C9.7137 31.1061 14.3746 34.7871 19.8652 36.3886L20.0002 36.426L20.1352 36.3886C25.4146 34.8487 29.927 31.3861 32.7806 26.6851L33.115 26.115C35.6996 21.554 36.5592 16.2422 35.5833 11.1381L35.4542 10.518L34.9286 10.5069C29.6618 10.3095 24.5771 8.51489 20.3532 5.36261L20.0002 5.09ZM27.4144 15.0858C26.6334 14.3047 25.3671 14.3047 24.586 15.0858L18.0002 21.67L15.4144 19.0858L15.226 18.9194C14.4414 18.3094 13.307 18.3648 12.586 19.0858C11.805 19.8668 11.805 21.1332 12.586 21.9142L16.586 25.9142L16.7744 26.0806C17.559 26.6906 18.6935 26.6352 19.4144 25.9142L27.4144 17.9142L27.5808 17.7258C28.1909 16.9412 28.1354 15.8068 27.4144 15.0858Z" fill="#FFBB38"/>
</svg>
